<?xml version="1.0" encoding="utf-8"?>
<!-- Generator: Adobe Illustrator 24.1.0, SVG Export Plug-In . SVG Version: 6.00 Build 0)  -->
<svg version="1.0" xmlns="http://www.w3.org/2000/svg" xmlns:xlink="http://www.w3.org/1999/xlink" x="0px" y="0px" width="650px"
	 height="400px" viewBox="0 0 650 400" style="enable-background:new 0 0 650 400;" xml:space="preserve">
<g id="f8ac0858-e997-47e1-9c23-bf0c3641d391">
	<radialGradient id="SVGID_1_" cx="325" cy="200" r="552.6466" fx="348.8877" fy="540.325" gradientUnits="userSpaceOnUse">
		<stop  offset="0" style="stop-color:#1B1B1E"/>
		<stop  offset="1" style="stop-color:#282821"/>
	</radialGradient>
	<rect style="fill:url(#SVGID_1_);" width="650" height="400"/>
	<g id="e265862d-c9dd-4fc1-99e4-5d1f118cfe24">
		<g>
			<g>
				<rect x="7.9" y="382.1" style="fill:#20BDFF;fill-opacity:0.8;" width="6.5" height="1.9"/>
				<rect x="7.9" y="385.9" style="fill:#20BDFF;fill-opacity:0.8;" width="2.9" height="1.9"/>
				<rect x="13.8" y="385.9" style="fill:#20BDFF;" width="2.9" height="1.9"/>
				<rect x="16" y="382.1" style="fill:#20BDFF;fill-opacity:0.8;" width="6.5" height="1.9"/>
				<rect x="7.9" y="393.3" style="fill:#20BDFF;fill-opacity:0.8;" width="6.5" height="1.9"/>
				<rect x="16" y="393.3" style="fill:#20BDFF;fill-opacity:0.8;" width="6.5" height="1.9"/>
				<rect x="19.6" y="385.9" style="fill:#20BDFF;fill-opacity:0.8;" width="2.9" height="1.9"/>
				<rect x="7.9" y="389.6" style="fill:#20BDFF;fill-opacity:0.8;" width="2.9" height="1.9"/>
				<rect x="13.8" y="389.6" style="fill:#20BDFF;fill-opacity:0.8;" width="2.9" height="1.9"/>
				<rect x="19.6" y="389.6" style="fill:#20BDFF;fill-opacity:0.8;" width="2.9" height="1.9"/>
			</g>
			<path style="fill:#20BDFF;fill-opacity:0.8;" d="M29.9,385.6l1.2,3v-3h1.2v6.1h-1.2l-1.2-3v3h-1.2v-6.1H29.9z"/>
			<path style="fill:#20BDFF;fill-opacity:0.8;" d="M41.4,385.6v1.3H39v1.2h2.3v1.2H39v1.2h2.3v1.2h-3.5v-6.1L41.4,385.6z"/>
			<path style="fill:#20BDFF;fill-opacity:0.8;" d="M48.2,385.6l0.6,3l0.6-3h1.2l-1.2,6.1h-1.2l-1.2-6.1H48.2z"/>
			<path style="fill:#20BDFF;fill-opacity:0.8;" d="M59.7,385.6v1.3h-2.3v1.2h2.3v1.2h-2.3v1.2h2.3v1.2h-3.5v-6.1L59.7,385.6z"/>
			<path style="fill:#20BDFF;fill-opacity:0.8;" d="M67.6,385.6c0.3,0,0.6,0.1,0.8,0.4c0.2,0.2,0.4,0.5,0.3,0.9v1.2
				c0,0.2-0.1,0.5-0.2,0.7c-0.1,0.2-0.3,0.4-0.5,0.5l0.7,2.5h-1.2l-0.7-2.5h-0.5v2.5h-1.2v-6.1L67.6,385.6z M66.4,388h1.2v-1.2h-1.2
				V388z"/>
			<path style="fill:#20BDFF;fill-opacity:0.8;" d="M77.9,385.6v1.3h-2.4v1.2h2.4v1.2h-2.4v1.2h2.4v1.2h-3.5v-6.1L77.9,385.6z"/>
			<path style="fill:#20BDFF;fill-opacity:0.8;" d="M84.7,385.6l1.2,3v-3H87v6.1h-1.2l-1.2-3v3h-1.1v-6.1H84.7z"/>
			<path style="fill:#20BDFF;fill-opacity:0.8;" d="M96.2,385.6v1.3h-2.3v3.6H95v-2.4h1.2v2.4c0,0.3-0.1,0.6-0.3,0.9
				c-0.2,0.2-0.5,0.4-0.9,0.4h-1.1c-0.3,0-0.6-0.1-0.9-0.4c-0.2-0.2-0.3-0.5-0.3-0.9v-3.6c0-0.3,0.1-0.6,0.3-0.9
				c0.2-0.2,0.5-0.4,0.9-0.4L96.2,385.6z"/>
			<path style="fill:#20BDFF;fill-opacity:0.8;" d="M104.7,385.6v1.3h-0.6v3.6h0.6v1.2h-2.4v-1.3h0.7v-3.6h-0.6v-1.2L104.7,385.6z"
				/>
			<path style="fill:#20BDFF;fill-opacity:0.8;" d="M112.5,385.6l1.2,3v-3h1.2v6.1h-1.2l-1.2-3v3h-1.2v-6.1H112.5z"/>
			<path style="fill:#20BDFF;fill-opacity:0.8;" d="M124,385.6v1.3h-2.4v1.2h2.4v1.2h-2.4v1.2h2.4v1.2h-3.5v-6.1L124,385.6z"/>
			<path style="fill:#20BDFF;fill-opacity:0.8;" d="M130.8,385.6v4.9h2.3v1.2h-3.5v-6.1H130.8z"/>
			<path style="fill:#20BDFF;fill-opacity:0.8;" d="M141.1,385.6c0.3,0,0.6,0.1,0.8,0.4c0.2,0.2,0.3,0.5,0.3,0.9v4.9h-1.2v-2.5h-1.2
				v2.5h-1.2v-4.8c0-0.3,0.1-0.6,0.4-0.9c0.2-0.2,0.5-0.4,0.8-0.4L141.1,385.6z M139.9,388h1.2v-1.2h-1.2V388z"/>
			<path style="fill:#20BDFF;fill-opacity:0.8;" d="M151.2,388.3c-0.1-0.1-0.4-0.1-0.5,0c-0.1,0.1-0.1,0.4,0,0.5
				c0.1,0.1,0.4,0.1,0.5,0c0.2,0.2,0.3,0.4,0.3,0.7v0.9c0,0.3-0.1,0.6-0.3,0.9c-0.2,0.2-0.5,0.4-0.8,0.4h-2.4v-6.1h2.4
				c0.3,0,0.6,0.1,0.8,0.4c0.2,0.2,0.3,0.5,0.3,0.9v0.9C151.4,387.9,151.3,388.2,151.2,388.3z M150.2,386.8h-1.2v1.2h1.2V386.8z
				 M150.2,389.2h-1.2v1.2h1.2V389.2z"/>
			<path style="fill:#20BDFF;fill-opacity:0.8;" d="M160.6,385.6v1.3h-2.4v1.2h1.2c0.7,0,1.2,0.5,1.2,1.2c0,0,0,0,0,0v1.2
				c0,0.3-0.1,0.6-0.4,0.8c-0.2,0.2-0.5,0.4-0.8,0.4H157v-1.3h2.4v-1.2h-1.2c-0.3,0-0.6-0.1-0.8-0.3c-0.2-0.2-0.4-0.5-0.4-0.8v-1.2
				c0-0.3,0.1-0.6,0.4-0.9c0.2-0.2,0.5-0.4,0.8-0.4L160.6,385.6z"/>
		</g>
	</g>
</g>
<g id="Layer_2">
</g>
</svg>
