<svg id="b50607d2-5e5c-4cd5-aeff-e5361a1cb12b" data-name="Layer 1" xmlns="http://www.w3.org/2000/svg" xmlns:xlink="http://www.w3.org/1999/xlink" width="2894.33" height="1799.54" viewBox="0 0 2894.33 1799.54"><defs><radialGradient id="b9f86e6e-78ae-40ce-a5a4-50cea8b51926" cx="587.99" cy="393.75" r="578.79" gradientTransform="translate(-1057.74 0) scale(4 2.49)" gradientUnits="userSpaceOnUse"><stop offset="0" stop-color="#00b7ba"/><stop offset="0.25" stop-color="#1a828f"/><stop offset="0.49" stop-color="#2f566b"/><stop offset="0.7" stop-color="#3e3752"/><stop offset="0.88" stop-color="#482443"/><stop offset="1" stop-color="#4b1d3d"/></radialGradient><linearGradient id="e6ad032a-dabc-4b5e-ad1d-ccda36782e81" x1="543.08" y1="474.99" x2="750.07" y2="873.95" gradientUnits="userSpaceOnUse"><stop offset="0" stop-color="#00b7ba"/><stop offset="0.34" stop-color="#01b5b8"/><stop offset="0.46" stop-color="#04aeb3"/><stop offset="0.55" stop-color="#0aa3a9"/><stop offset="0.62" stop-color="#12929c"/><stop offset="0.68" stop-color="#1d7c8a"/><stop offset="0.74" stop-color="#2a6074"/><stop offset="0.78" stop-color="#39415a"/><stop offset="0.83" stop-color="#4b1d3d"/></linearGradient><radialGradient id="abec14be-83b1-4346-b2a9-ae48bb1bd758" cx="653.95" cy="334.73" r="427.79" gradientTransform="translate(-1057.74 0) scale(4 2.49)" gradientUnits="userSpaceOnUse"><stop offset="0" stop-color="#00b7ba"/><stop offset="0.19" stop-color="#1a828f"/><stop offset="0.37" stop-color="#2f566b"/><stop offset="0.53" stop-color="#3e3752"/><stop offset="0.67" stop-color="#482443"/><stop offset="0.77" stop-color="#4b1d3d"/></radialGradient><linearGradient id="f8259d70-471c-4dca-835b-756ca5d8cd24" x1="2670.32" y1="868.87" x2="1640.27" y2="1898.92" gradientUnits="userSpaceOnUse"><stop offset="0.19" stop-color="#ef3a48"/><stop offset="0.41" stop-color="#ed3a48"/><stop offset="0.49" stop-color="#e63847"/><stop offset="0.54" stop-color="#db3647"/><stop offset="0.59" stop-color="#ca3345"/><stop offset="0.63" stop-color="#b42f44"/><stop offset="0.66" stop-color="#982b42"/><stop offset="0.69" stop-color="#782540"/><stop offset="0.72" stop-color="#541f3e"/><stop offset="0.72" stop-color="#4b1d3d"/></linearGradient><linearGradient id="a13fc70d-4c7b-41e0-b151-c16a8f1851d4" x1="799.81" y1="1028.43" x2="900.88" y2="1238.17" gradientUnits="userSpaceOnUse"><stop offset="0.08" stop-color="#ef3a48"/><stop offset="0.38" stop-color="#ed3a48"/><stop offset="0.48" stop-color="#e63847"/><stop offset="0.56" stop-color="#db3647"/><stop offset="0.62" stop-color="#ca3345"/><stop offset="0.67" stop-color="#b42f44"/><stop offset="0.72" stop-color="#982b42"/><stop offset="0.76" stop-color="#782540"/><stop offset="0.8" stop-color="#541f3e"/><stop offset="0.81" stop-color="#4b1d3d"/></linearGradient><linearGradient id="ae853bd5-3032-457a-b74a-d402a9a2ccaf" x1="414.12" y1="104.1" x2="73.73" y2="444.49" gradientUnits="userSpaceOnUse"><stop offset="0.29" stop-color="#fec55c"/><stop offset="0.46" stop-color="#fcc35b"/><stop offset="0.53" stop-color="#f5bd59"/><stop offset="0.57" stop-color="#eab256"/><stop offset="0.61" stop-color="#d9a351"/><stop offset="0.64" stop-color="#c38f4a"/><stop offset="0.66" stop-color="#a77742"/><stop offset="0.69" stop-color="#885a39"/><stop offset="0.71" stop-color="#6d4231"/></linearGradient><radialGradient id="f172b1ad-7d71-4596-b891-7d1958e38110" cx="584.03" cy="437.25" r="306.95" gradientTransform="translate(-1057.74 0) scale(4 2.49)" gradientUnits="userSpaceOnUse"><stop offset="0" stop-color="#00b7ba"/><stop offset="0.18" stop-color="#01b4b8"/><stop offset="0.31" stop-color="#06abb0"/><stop offset="0.42" stop-color="#0e9ba3"/><stop offset="0.53" stop-color="#188591"/><stop offset="0.63" stop-color="#26687a"/><stop offset="0.72" stop-color="#37455e"/><stop offset="0.81" stop-color="#4b1d3d"/></radialGradient><linearGradient id="a31e2f73-aa4b-42a5-a2b1-e9e85fed6960" x1="426.07" y1="331.41" x2="-565.65" y2="1323.13" gradientUnits="userSpaceOnUse"><stop offset="0.19" stop-color="#ef3a48"/><stop offset="0.42" stop-color="#ed3a48"/><stop offset="0.5" stop-color="#e63847"/><stop offset="0.55" stop-color="#db3647"/><stop offset="0.6" stop-color="#ca3345"/><stop offset="0.64" stop-color="#b42f44"/><stop offset="0.68" stop-color="#982b42"/><stop offset="0.71" stop-color="#782540"/><stop offset="0.74" stop-color="#541f3e"/><stop offset="0.74" stop-color="#4b1d3d"/></linearGradient><linearGradient id="eb9f33ce-8f1a-4cc7-bedc-7051a16994b5" x1="2454.65" y1="1270.4" x2="1827.14" y2="1897.9" gradientUnits="userSpaceOnUse"><stop offset="0.3" stop-color="#00b7ba"/><stop offset="0.49" stop-color="#01b5b8"/><stop offset="0.56" stop-color="#04aeb3"/><stop offset="0.61" stop-color="#0aa3a9"/><stop offset="0.65" stop-color="#12929c"/><stop offset="0.68" stop-color="#1d7c8a"/><stop offset="0.71" stop-color="#2a6074"/><stop offset="0.74" stop-color="#39415a"/><stop offset="0.76" stop-color="#4b1d3d"/></linearGradient><linearGradient id="f4538fcd-956c-49ca-ae36-cba20767039c" x1="871.49" y1="2197.37" x2="1666.22" y2="1402.64" gradientUnits="userSpaceOnUse"><stop offset="0.37" stop-color="#00b7ba"/><stop offset="0.55" stop-color="#01b5b8"/><stop offset="0.61" stop-color="#04aeb3"/><stop offset="0.66" stop-color="#0aa3a9"/><stop offset="0.7" stop-color="#12929c"/><stop offset="0.73" stop-color="#1d7c8a"/><stop offset="0.76" stop-color="#2a6074"/><stop offset="0.79" stop-color="#39415a"/><stop offset="0.81" stop-color="#4b1d3d"/></linearGradient><linearGradient id="b3db04a3-91d7-4faa-a1fb-c27462a1ed08" x1="-93.45" y1="1503.21" x2="346.1" y2="1707.51" gradientUnits="userSpaceOnUse"><stop offset="0.3" stop-color="#00b7ba"/><stop offset="0.49" stop-color="#01b5b8"/><stop offset="0.55" stop-color="#04aeb3"/><stop offset="0.6" stop-color="#0aa3a9"/><stop offset="0.64" stop-color="#12929c"/><stop offset="0.67" stop-color="#1d7c8a"/><stop offset="0.7" stop-color="#2a6074"/><stop offset="0.73" stop-color="#39415a"/><stop offset="0.75" stop-color="#4b1d3d"/></linearGradient></defs><rect width="2894.32" height="1799.53" fill="#4b1d3d" opacity="0.8"/><path d="M2336.3,1323.62c-26.55,8.53-62.47,5.38-83.67-7.8-24.35-15.14-27.44-34.68-15.38-52.75,4.88-7.29,163.86-241.87,176.33-263.46,20.89-36.18,9.55-62.37-40.43-93.45L915.7,0H2894.33V1146.75S2363,1315.06,2336.3,1323.62Z" opacity="0.8" fill="url(#b9f86e6e-78ae-40ce-a5a4-50cea8b51926)"/><path d="M1668.6,0h18.57L2285.6,372.07c70,43.52,81.27,86.43,36.55,139.12,0,0-284.17,344.33-294.47,356.72-10.47,12.59-7.73,25.69,7.47,35.15,11.88,7.32,34.09,13.17,57.54,5.49C2148.93,890.12,2546.94,764,2894.33,654v9.16c-345.92,109.56-739.66,234.32-795.52,252.61-29.75,9.75-57.86,2.37-73.1-7-19.3-12-22.94-28.67-9.71-44.58,10.28-12.36,294.54-356.79,294.54-356.79,41.6-49,31-88.95-34.23-129.53Z" fill="#00b7ba" opacity="0.8"/><path d="M1012.7,503.71c-15.87-9.87-40.8-11.71-62-4.9-41.21,13.24-433.52,142-433.52,142L303.31,899.76,881.58,709.3s124.89-153,137.66-168C1032.19,526,1026.22,512.11,1012.7,503.71Z" opacity="0.8" fill="url(#e6ad032a-dabc-4b5e-ad1d-ccda36782e81)"/><path d="M1267.9,981.4c-42.21-26.25-51.78-48.38-34.14-78.92,10.53-18.24,144.8-216.36,148.91-222.51,10.18-15.26,11.44-33.11-10.58-46.81s-50.64-11.53-73.07-4.33C1289.19,632,560.2,862.17,0,1039.07v760.46H2583.78Z" opacity="0.8" fill="url(#abec14be-83b1-4346-b2a9-ae48bb1bd758)"/><path d="M1608.82,1068.87c-27.13-16.87-63.89-25.35-100.16-17.07-11.73,2.67-58.55,15.34-89.35,23.73l1164.47,724H2784Z" opacity="0.8" fill="url(#f8259d70-471c-4dca-835b-756ca5d8cd24)"/><path d="M1018.32,1054.12c-5.58-3.46-16.55-5.12-25.74-2.16-17.59,5.65-193,63-193,63L694.39,1243.31l247.92-76.14s73.14-88.7,80-96.79C1027.94,1063.75,1023.69,1057.47,1018.32,1054.12Z" opacity="0.8" fill="url(#a13fc70d-4c7b-41e0-b151-c16a8f1851d4)"/><path d="M448.89,368.68,0,89.58V308.13L393.85,553C419,516,471.12,439.28,476.34,431,492.51,405.16,472.41,383.32,448.89,368.68Z" opacity="0.8" fill="url(#ae853bd5-3032-457a-b74a-d402a9a2ccaf)"/><path d="M1282.31,1114.1c12.6-14.87,3.1-29-9-36.47-13-8.1-37.11-11.48-57.72-4.85-54.91,17.65-828.91,252.44-859,259.15C295,1345.7,250.17,1338.16,196.9,1305L0,1182.62v616.92H720S1262.49,1137.48,1282.31,1114.1Z" opacity="0.8" fill="url(#f172b1ad-7d71-4596-b891-7d1958e38110)"/><path d="M0,214V1300.91C260.81,984.18,551.44,631.35,551.44,631.35c28.61-33.71,21.34-61.18-23.55-89.1Z" opacity="0.8" fill="url(#a31e2f73-aa4b-42a5-a2b1-e9e85fed6960)"/><path d="M527.89,542.25,0,214v94.09L478.2,605.45c36,22.38,47.74,44.48,36.26,69.74a7.11,7.11,0,0,1,2.18-1.59c22.21-27,34.8-42.25,34.8-42.25C580.05,597.64,572.78,570.17,527.89,542.25Z" fill="#f3756e" opacity="0.8"/><path d="M1770,1430.38c76.42-17.37,139.88-3,199.28,34l539.1,335.18H2256.64l-563.57-350.41C1725.29,1440.94,1751.47,1434.6,1770,1430.38Z" opacity="0.8" fill="url(#eb9f33ce-8f1a-4cc7-bedc-7051a16994b5)"/><path d="M1331.83,1336.68,607.6,1522.5c-34.13,8.81-72.7,3.73-100.2-13.37-26.43-16.43-31.11-40.06-14.8-59.68L1088.52,723.5c12.6-14.86,5.29-27.59-9.12-36.55-15.45-9.61-37-11.4-57.58-4.77L361.35,898.49c-73.53,24.12-133.44,18-194.25-19.79L0,774.81V760.73H0v1038.8H2192.75l-701.19-436C1438.29,1330.45,1393.51,1322.91,1331.83,1336.68Z" fill="#ef3a48" opacity="0.8"/><path d="M720,1799.53H2192.75l-701.19-436c-53.27-33.12-98-40.66-159.73-26.89l-294.34,75.52C885.93,1597,720.19,1799.3,720,1799.53Z" fill="#f3756e" opacity="0.8"/><path d="M356.64,1331.93c12.23-2.73,147.55-43.2,307.49-91.44l424.39-517c12.6-14.86,5.29-27.59-9.12-36.55-15.45-9.61-37-11.4-57.58-4.77L361.35,898.49c-73.53,24.12-133.44,18-194.25-19.79L0,774.81v407.81L196.9,1305C250.17,1338.16,295,1345.7,356.64,1331.93Z" fill="#f3756e" opacity="0.8"/><path d="M526.46,944.3c45.22-14.54,94.11-10.62,128,10.44,26,16.15,46,47.61,18.33,80.2-48.59,57.34-333.08,404.13-628.49,764.6H0V1116.28C251.71,1033.81,464,964.36,526.46,944.3Z" fill="#fec55c" opacity="0.8"/><path d="M654.45,954.74c-33.88-21.06-82.77-25-128-10.44C464,964.36,251.71,1033.81,0,1116.28v66.34L196.9,1305c53.27,33.12,98,40.66,159.74,26.89,5.93-1.33,40.88-11.55,93.5-27.21,114.61-139.51,198.28-241,222.64-269.78C700.42,1002.35,680.43,970.89,654.45,954.74Z" fill="#4b1d3d" opacity="0.8"/><path d="M1506.69,1452.58c8-14.12,20.43-33.52,36-57.26l650.11,404.21H1873.21L1579,1616.6C1482,1556.29,1475.53,1508,1506.69,1452.58Z" fill="#fec55c" opacity="0.8"/><polygon points="1251.04 1515.19 830.19 1799.54 1708.46 1799.53 1251.04 1515.19" opacity="0.8" fill="url(#f4538fcd-956c-49ca-ae36-cba20767039c)"/><path d="M0,1553.61v245.93H44.29c100.21-122.28,199.14-243,288-351.32C249.47,1474.56,123,1514.65,0,1553.61Z" opacity="0.8" fill="url(#b3db04a3-91d7-4faa-a1fb-c27462a1ed08)"/><path d="M0,735.09,199,858.84c53.6,33.33,93.78,30.37,141.22,14.8l660.81-216.41c37.85-12.16,81.08-8.29,110.27,9.86,28.18,17.52,36.61,46.55,17.15,69.51L532.73,1462.34c-10.78,13,1,23.13,6.57,26.89,10.19,6.81,29.54,12.86,51,7.33,12.93-3.34,667.16-173.11,726.28-186.31,77.92-17.4,141.75-7.08,207,33.45l733.13,455.83h-63.89l-701.19-436c-53.27-33.12-98-40.66-159.73-26.89L607.6,1522.5c-34.13,8.81-72.7,3.73-100.2-13.37-26.43-16.43-31.11-40.06-14.8-59.68L1088.52,723.5c12.6-14.86,5.29-27.59-9.12-36.55-15.45-9.61-37-11.4-57.58-4.77L361.35,898.49c-73.53,24.12-133.44,18-194.25-19.79L0,774.81Z" fill="#fedec5" opacity="0.8"/><path d="M1142,1506c38.94-12.52,90.07-2.63,109,9.17,22.8,14.18,40.76,40.81,17,68.9-20,23.57-86.31,104-177.86,215.45h-845C609.93,1679.87,1053,1534.64,1142,1506Z" fill="#fec55c" opacity="0.8"/><path d="M1268,1584.09c23.81-28.09,5.85-54.72-17-68.9-19-11.8-70.11-21.69-109-9.17-35.46,11.4-127.12,41.31-247.6,80.73C797.27,1705.23,720.13,1799.37,720,1799.53h370.13C1181.68,1688.11,1248,1607.66,1268,1584.09Z" fill="#fedec5" opacity="0.8"/><path d="M438.78,1468.6c10.4-12.52,4.36-28.51-8.58-36.55-15.78-9.81-39.66-12-59.3-5.58C344.82,1435,163.23,1492.56,0,1544.25V1561c166-52.59,355.29-112.55,382.1-121.34,12.71-4.17,23.66-1.36,30.13,2.66,8.22,5.11,10.88,12.57,5.21,19.4-17.16,20.64-185,218.34-185,218.34-20.63,24.3-15.41,44.11,16.92,64.21l88.84,55.25h34l-105.84-65.81c-28.5-17.72-26-31-12.66-46.68C253.7,1687.05,421.56,1489.29,438.78,1468.6Z" fill="#4b1d3d" opacity="0.8"/></svg>