<?xml version="1.0" encoding="utf-8"?>
<!-- Generator: Adobe Illustrator 24.1.0, SVG Export Plug-In . SVG Version: 6.00 Build 0)  -->
<svg version="1.1" xmlns="http://www.w3.org/2000/svg" xmlns:xlink="http://www.w3.org/1999/xlink" x="0px" y="0px"
	 width="402.92px" height="117.21px" viewBox="0 0 402.92 117.21" style="enable-background:new 0 0 402.92 117.21;"
	 xml:space="preserve">
<style type="text/css">
	.st0{fill:#F79355;}
	.st1{fill:#33C21C;}
	.st2{fill:#100D36;stroke:#000000;stroke-width:2.9214;stroke-miterlimit:10;}
</style>
<symbol  id="a59f87b6-0439-40fb-bcac-5aff05fde512" viewBox="-76.33 -6.58 152.66 13.16">
	<g>
		<g>
			<rect x="-76.32" y="-6.58" class="st0" width="6.53" height="1.89"/>
			<rect x="-76.33" y="-2.8" class="st0" width="2.95" height="1.85"/>
			<rect x="-70.44" y="-2.8" class="st0" width="2.92" height="1.85"/>
			<rect x="-68.18" y="-6.58" class="st0" width="6.53" height="1.89"/>
			<rect x="-76.32" y="4.69" class="st0" width="6.53" height="1.89"/>
			<rect x="-68.18" y="4.69" class="st0" width="6.53" height="1.89"/>
			<rect x="-64.6" y="-2.8" class="st0" width="2.95" height="1.85"/>
			<rect x="-76.33" y="0.95" class="st0" width="2.95" height="1.85"/>
			<rect x="-70.44" y="0.95" class="st0" width="2.92" height="1.85"/>
			<rect x="-64.6" y="0.95" class="st0" width="2.95" height="1.85"/>
		</g>
		<path class="st1" d="M-54.33-3.09l1.16,3v-3h1.18V3h-1.15l-1.19-3.05V3h-1.16v-6.09H-54.33z"/>
		<path class="st1" d="M-42.82-3.09v1.22h-2.35v1.23h2.35v1.19h-2.35v1.23h2.35V3h-3.51v-6.09H-42.82z"/>
		<path class="st1" d="M-36.04-3.09l0.58,3l0.58-3h1.19L-34.88,3h-1.16l-1.19-6.09H-36.04z"/>
		<path class="st1" d="M-24.56-3.09v1.22h-2.35v1.23h2.35v1.19h-2.35v1.23h2.35V3h-3.53v-6.09H-24.56z"/>
		<path class="st1" d="M-16.62-3.09c0.32,0.01,0.62,0.14,0.84,0.37c0.23,0.22,0.36,0.53,0.35,0.85v1.23c0,0.24-0.07,0.47-0.19,0.67
			c-0.13,0.2-0.31,0.35-0.53,0.44L-15.43,3h-1.19l-0.71-2.45h-0.47V3h-1.16v-6.09H-16.62z M-17.78-0.64h1.16v-1.23h-1.16V-0.64z"/>
		<path class="st1" d="M-6.33-3.09v1.22h-2.32v1.23h2.32v1.19h-2.32v1.23h2.32V3h-3.5v-6.09H-6.33z"/>
		<path class="st1" d="M0.49-3.09l1.15,3v-3h1.19V3H1.67L0.52,0v3H-0.7v-6.09H0.49z"/>
		<path class="st1" d="M11.96-3.09v1.22H9.67v3.65h1.16v-2.42h1.18v2.42c0.01,0.32-0.11,0.63-0.34,0.85
			C11.45,2.86,11.15,2.99,10.83,3H9.67C9.35,2.99,9.05,2.85,8.82,2.63C8.59,2.41,8.47,2.1,8.48,1.78v-3.65
			C8.47-2.19,8.59-2.5,8.82-2.72c0.23-0.22,0.53-0.36,0.85-0.37H11.96z"/>
		<path class="st1" d="M20.51-3.09v1.22h-0.6v3.65h0.6V3h-2.37V1.78h0.61v-3.65h-0.61v-1.22H20.51z"/>
		<path class="st1" d="M28.33-3.09l1.15,3v-3h1.19V3h-1.19l-1.15-3v3h-1.19v-6.09H28.33z"/>
		<path class="st1" d="M39.8-3.09v1.22h-2.34v1.23h2.34v1.19h-2.34v1.23h2.34V3h-3.53v-6.09H39.8z"/>
		<path class="st1" d="M46.59-3.09v4.87h2.34V3H45.4v-6.09H46.59z"/>
		<path class="st1" d="M56.88-3.09c0.32,0.01,0.62,0.14,0.84,0.37c0.23,0.22,0.36,0.53,0.35,0.85V3h-1.19V0.55h-1.16V3h-1.19v-4.87
			c-0.01-0.32,0.12-0.63,0.35-0.85c0.22-0.23,0.52-0.36,0.84-0.37L56.88-3.09z M55.72-0.64h1.16v-1.23h-1.16V-0.64z"/>
		<path class="st1" d="M66.93-0.32c-0.16,0.17-0.38,0.27-0.62,0.27c0.24,0,0.46,0.1,0.62,0.28c0.17,0.17,0.27,0.4,0.27,0.64v0.91
			c0.01,0.32-0.12,0.63-0.35,0.85C66.63,2.86,66.33,2.99,66.01,3h-2.34v-6.09h2.35c0.32,0.01,0.62,0.14,0.84,0.37
			c0.23,0.22,0.36,0.53,0.35,0.85v0.91C67.21-0.72,67.11-0.48,66.93-0.32z M66.01-1.87h-1.16v1.23h1.16V-1.87z M66.01,0.55h-1.16
			v1.23h1.16V0.55z"/>
		<path class="st1" d="M76.33-3.09v1.22h-2.35v1.23h1.16c0.31-0.01,0.62,0.12,0.84,0.34c0.23,0.22,0.36,0.53,0.35,0.85v1.23
			c0.01,0.32-0.12,0.63-0.35,0.85C75.76,2.86,75.46,2.99,75.14,3H72.8V1.78h2.34V0.55h-1.16c-0.64,0.01-1.17-0.5-1.18-1.14
			c0-0.02,0-0.03,0-0.05v-1.23c-0.01-0.32,0.11-0.63,0.34-0.85c0.22-0.23,0.52-0.36,0.84-0.37L76.33-3.09z"/>
	</g>
</symbol>
<g id="Layer_2">
	<rect x="1.46" y="1.46" class="st2" width="400" height="114.29"/>
</g>
<g id="ab50a4d6-51e3-4638-b29d-7ff1e5b6a9df">
	<g>
		<defs>
			<rect id="SVGID_1_" x="21.91" y="46.04" width="367.73" height="31.38"/>
		</defs>
		<clipPath id="SVGID_2_">
			<use xlink:href="#SVGID_1_"  style="overflow:visible;"/>
		</clipPath>
		<g style="clip-path:url(#SVGID_2_);">
			
				<use xlink:href="#a59f87b6-0439-40fb-bcac-5aff05fde512"  width="152.66" height="13.16" x="-76.33" y="-6.58" transform="matrix(2.4088 0 0 2.3848 205.7744 61.728)" style="overflow:visible;"/>
		</g>
	</g>
</g>
</svg>
